<?xml version="1.0" encoding="UTF-8"?>
<svg width="25px" height="25px" viewBox="0 0 25 25" version="1.1" xmlns="http://www.w3.org/2000/svg" xmlns:xlink="http://www.w3.org/1999/xlink">
    <!-- Generator: Sketch 52.4 (67378) - http://www.bohemiancoding.com/sketch -->
    <title>Group 5</title>
    <desc>Created with Sketch.</desc>
    <g id="Home-Page" stroke="none" stroke-width="1" fill="none" fill-rule="evenodd">
        <g id="Home-page" transform="translate(-1025.000000, -3387.000000)" fill="#FFFFFF">
            <g id="Group-4" transform="translate(995.000000, 3387.000000)">
                <g id="Group-5" transform="translate(30.000000, 0.000000)">
                    <path d="M25,12.5 L24.9997024,12.5182143 L24.9175595,17.7625595 C24.8731663,21.6954904 21.6957285,24.8729282 17.7627976,24.9173214 L12.5,25 L12.4817857,24.9996429 L7.23744048,24.9177381 C3.30444965,24.8733486 0.126907286,21.6959648 0.0823214286,17.7629762 L0,12.5 L0.000357142857,12.4817857 L0.0822619048,7.2372619 C0.126973665,3.30432629 3.30444311,0.127015446 7.23738095,0.0825 L12.5,0 L12.5182143,0.000357142857 L17.7625595,0.0822619048 C21.6954374,0.126781059 24.8728023,3.30414596 24.9173214,7.23702381 L25,12.5 Z M22.6719048,12.5 L22.590119,7.27380952 C22.5599135,4.60013768 20.3998619,2.44005965 17.7261905,2.40982143 L12.5,2.32821429 L7.27380952,2.40982143 C4.60014455,2.44012137 2.44009456,4.60014493 2.4097619,7.27380952 L2.32815476,12.5 L2.4097619,17.7261905 C2.44000013,20.3998948 4.60010481,22.5599731 7.27380952,22.5901786 L12.5,22.6717857 L17.7261905,22.5901786 C20.3999017,22.5600348 22.560008,20.3999021 22.590119,17.7261905 L22.6719048,12.5 Z" id="Shape-Copy" fill-rule="nonzero"></path>
                    <g id="if_facebook_social_media_logo_1531638" transform="translate(9.000000, 7.000000)">
                        <path d="M1.32919419,13 L3.98996037,13 L3.98996037,6.4991998 L5.76459709,6.4991998 L6,4.25944848 L3.98996037,4.25944848 L3.99233818,3.13757233 C3.99233818,2.55342854 4.04782034,2.24055152 4.87767503,2.24055152 L5.98731836,2.24055152 L5.98731836,0 L4.21188904,0 C2.07978864,0 1.32919419,1.08666749 1.32919419,2.91431737 L1.32919419,4.25944848 L0,4.25944848 L0,6.5 L1.32919419,6.5 L1.32919419,13 Z" id="Path"></path>
                    </g>
                </g>
            </g>
        </g>
    </g>
</svg>