<?xml version="1.0" encoding="UTF-8"?>
<svg width="25px" height="25px" viewBox="0 0 25 25" version="1.1" xmlns="http://www.w3.org/2000/svg" xmlns:xlink="http://www.w3.org/1999/xlink">
    <!-- Generator: Sketch 52.4 (67378) - http://www.bohemiancoding.com/sketch -->
    <title>if_Instagram_1159683</title>
    <desc>Created with Sketch.</desc>
    <g id="Home-Page" stroke="none" stroke-width="1" fill="none" fill-rule="evenodd">
        <g id="Home-page" transform="translate(-995.000000, -3387.000000)" fill="#FFFFFF" fill-rule="nonzero">
            <g id="Group-4" transform="translate(995.000000, 3387.000000)">
                <g id="if_Instagram_1159683">
                    <path d="M20.4058333,5.96904762 C20.4059537,6.55412752 20.0535868,7.08165802 19.5130665,7.30561401 C18.9725462,7.52957 18.3503393,7.40583863 17.9366253,6.99212466 C17.5229114,6.57841069 17.39918,5.95620381 17.623136,5.41568349 C17.847092,4.87516317 18.3746225,4.52279629 18.9597024,4.52291667 C19.7583104,4.52308097 20.405669,5.17043962 20.4058333,5.96904762 Z M25,12.5 L24.9997024,12.5182143 L24.9175595,17.7625595 C24.8731663,21.6954904 21.6957285,24.8729282 17.7627976,24.9173214 L12.5,25 L12.4817857,24.9996429 L7.23744048,24.9177381 C3.30444965,24.8733486 0.126907286,21.6959648 0.0823214286,17.7629762 L0,12.5 L0.000357142857,12.4817857 L0.0822619048,7.2372619 C0.126973665,3.30432629 3.30444311,0.127015446 7.23738095,0.0825 L12.5,0 L12.5182143,0.000357142857 L17.7625595,0.0822619048 C21.6954374,0.126781059 24.8728023,3.30414596 24.9173214,7.23702381 L25,12.5 Z M22.6719048,12.5 L22.590119,7.27380952 C22.5599135,4.60013768 20.3998619,2.44005965 17.7261905,2.40982143 L12.5,2.32821429 L7.27380952,2.40982143 C4.60014455,2.44012137 2.44009456,4.60014493 2.4097619,7.27380952 L2.32815476,12.5 L2.4097619,17.7261905 C2.44000013,20.3998948 4.60010481,22.5599731 7.27380952,22.5901786 L12.5,22.6717857 L17.7261905,22.5901786 C20.3999017,22.5600348 22.560008,20.3999021 22.590119,17.7261905 L22.6719048,12.5 Z M18.9190476,12.5 C18.9190476,15.0962919 17.3550759,17.4369351 14.9564127,18.4304874 C12.5577494,19.4240397 9.79677234,18.8748373 7.96092524,17.0389731 C6.12507814,15.203109 5.57590128,12.4421268 6.56947585,10.0434728 C7.56305043,7.64481876 9.9037081,6.08086878 12.5,6.08089286 C16.0435063,6.0848949 18.9150784,8.95649364 18.9190476,12.5 Z M16.59125,12.5 C16.59125,10.8452143 15.594428,9.35337067 14.0656031,8.72011718 C12.5367782,8.08686368 10.7770284,8.43690967 9.60692672,9.60702834 C8.43682508,10.777147 8.0868047,12.5369019 8.72008043,14.0657176 C9.35335617,15.5945333 10.8452143,16.5913336 12.5,16.5913095 C14.7584607,16.5886853 16.588632,14.7584608 16.5911905,12.5 L16.59125,12.5 Z" id="Shape"></path>
                </g>
            </g>
        </g>
    </g>
</svg>