<?xml version="1.0" encoding="UTF-8"?>
<svg width="17px" height="17px" viewBox="0 0 17 17" version="1.1" xmlns="http://www.w3.org/2000/svg" xmlns:xlink="http://www.w3.org/1999/xlink">
    <!-- Generator: Sketch 52.4 (67378) - http://www.bohemiancoding.com/sketch -->
    <title>Shape</title>
    <desc>Created with Sketch.</desc>
    <g id="Home-Page" stroke="none" stroke-width="1" fill="none" fill-rule="evenodd">
        <g id="Single-Blog" transform="translate(-981.000000, -3004.000000)" fill="#FFFFFF" fill-rule="nonzero">
            <g id="if_link5_216660" transform="translate(974.000000, 2997.000000)">
                <path d="M12.9783408,20.3791419 L12.1523348,21.2597669 C11.4363133,22.0216608 10.2717836,22.0223179 9.55617024,21.2597669 C9.21213711,20.8932779 9.02318415,20.4065245 9.02318415,19.8891026 C9.02318415,19.3716807 9.21234116,18.8847083 9.55596618,18.5182194 L12.5963539,15.2798417 C13.2264691,14.6090771 14.4118122,13.6213314 15.275772,14.5411682 C15.6722468,14.9639558 16.3125646,14.961108 16.7061826,14.5356917 C17.1000046,14.1102754 17.097556,13.4226431 16.7010813,13.0002937 C15.2325128,11.4357605 13.0620025,11.7249209 11.1716568,13.738529 L8.13106503,16.9771257 C7.40157604,17.754573 7,18.7885405 7,19.8891026 C7,20.9896647 7.40157604,22.0234133 8.13126908,22.8008605 C8.88197957,23.6004329 9.86775896,24 10.8539465,24 C11.840338,24 12.8265255,23.6004329 13.5776441,22.8004224 L14.4042623,21.9195784 C14.8005329,21.4972289 14.8027775,20.8098157 14.4089555,20.3841803 C14.0157456,19.9589831 13.3748155,19.9565734 12.9783408,20.3791419 Z M22.8683459,8.30125018 C21.2910494,6.64998927 19.0856911,6.56042936 17.6255186,8.08897596 L16.5958888,9.16735483 C16.1994222,9.58264588 16.1969736,10.2580051 16.5907876,10.6763102 C16.9846016,11.0946153 17.6249064,11.0969835 18.0213731,10.6816924 L19.0505947,9.60395941 C19.8070032,8.81148335 20.7974556,9.14001322 21.4434738,9.81623363 C21.787908,10.1764109 21.9770612,10.6549967 21.9770612,11.1635075 C21.9770612,11.6722337 21.787704,12.1508195 21.4438819,12.5109967 L18.2001197,15.9060925 C16.7168897,17.4587514 16.0210836,16.7300006 15.7241928,16.4191244 C15.3277262,16.0038334 14.6876254,16.0064168 14.2938114,16.4245066 C13.8999974,16.8425964 13.902446,17.5183862 14.2989126,17.933462 C14.9798231,18.6464967 15.7570446,19 16.5718111,19 C17.5694052,19 18.6231127,18.4699603 19.6249918,17.4204301 L22.868754,14.0253343 C23.5980241,13.2612763 24,12.2449004 24,11.1632922 C24,10.0821146 23.5980241,9.06573878 22.8683459,8.30125018 Z" id="Shape"></path>
            </g>
        </g>
    </g>
</svg>