<?xml version="1.0" encoding="UTF-8"?>
<svg width="18px" height="16px" viewBox="0 0 18 16" version="1.1" xmlns="http://www.w3.org/2000/svg" xmlns:xlink="http://www.w3.org/1999/xlink">
    <!-- Generator: Sketch 52.4 (67378) - http://www.bohemiancoding.com/sketch -->
    <title>Path</title>
    <desc>Created with Sketch.</desc>
    <g id="Home-Page" stroke="none" stroke-width="1" fill="none" fill-rule="evenodd">
        <g id="Single-Blog" transform="translate(-1019.000000, -3005.000000)" fill="#FFFFFF">
            <g id="if_twitter_online_social_media_734367" transform="translate(1012.000000, 2997.000000)">
                <path d="M18.226,8.886 C16.636,9.465 15.631,10.957 15.745,12.59 L15.783,13.22 L15.147,13.143 C12.832,12.847 10.809,11.844 9.091,10.159 L8.251,9.323 L8.036,9.94 C7.578,11.316 7.871,12.77 8.825,13.748 C9.334,14.288 9.219,14.365 8.342,14.044 C8.037,13.941 7.769,13.864 7.744,13.903 C7.655,13.993 7.96,15.163 8.202,15.627 C8.533,16.271 9.207,16.9 9.945,17.274 L10.569,17.57 L9.83,17.581 C9.118,17.581 9.092,17.594 9.169,17.865 C9.423,18.701 10.428,19.589 11.548,19.975 L12.337,20.245 L11.65,20.657 C10.632,21.25 9.436,21.584 8.24,21.608 C7.667,21.621 7.196,21.672 7.196,21.711 C7.196,21.839 8.749,22.559 9.651,22.843 C12.361,23.679 15.58,23.318 17.997,21.891 C19.715,20.875 21.432,18.855 22.234,16.899 C22.667,15.858 23.099,13.954 23.099,13.041 C23.099,12.449 23.137,12.372 23.849,11.665 C24.269,11.253 24.663,10.803 24.74,10.675 C24.868,10.43 24.854,10.43 24.206,10.649 C23.125,11.035 22.972,10.984 23.507,10.405 C23.901,9.993 24.372,9.247 24.372,9.029 C24.372,8.991 24.181,9.055 23.965,9.17 C23.736,9.299 23.227,9.492 22.845,9.607 L22.158,9.826 L21.535,9.4 C21.191,9.169 20.709,8.911 20.454,8.834 C19.804,8.654 18.812,8.68 18.226,8.886 Z" id="Path"></path>
            </g>
        </g>
    </g>
</svg>